<svg width="240" height="240" viewBox="0 0 240 240" fill="none" xmlns="http://www.w3.org/2000/svg">
<path d="M40 210C34.5 210 29.7933 208.043 25.88 204.13C21.9667 200.217 20.0067 195.507 20 190V50C20 44.5 21.96 39.7933 25.88 35.88C29.8 31.9667 34.5067 30.0067 40 30H200C205.5 30 210.21 31.96 214.13 35.88C218.05 39.8 220.007 44.5067 220 50V190C220 195.5 218.043 200.21 214.13 204.13C210.217 208.05 205.507 210.007 200 210H40ZM40 190H60V170H40V190ZM180 190H200V170H180V190ZM40 150H60V130H40V150ZM180 150H200V130H180V150ZM40 110H60V90H40V110ZM180 110H200V90H180V110ZM40 70H60V50H40V70ZM180 70H200V50H180V70Z" fill="#333333"/>
<path d="M81.12 104.4C79.9743 104.4 78.8754 103.894 78.0653 102.994C77.2551 102.094 76.8 100.873 76.8 99.6C76.8 98.3269 77.2551 97.106 78.0653 96.2059C78.8754 95.3057 79.9743 94.8 81.12 94.8M81.12 104.4C82.2657 104.4 83.3645 103.894 84.1747 102.994C84.9848 102.094 85.44 100.873 85.44 99.6C85.44 98.3269 84.9848 97.106 84.1747 96.2059C83.3645 95.3057 82.2657 94.8 81.12 94.8M158.88 104.4C157.734 104.4 156.635 103.894 155.825 102.994C155.015 102.094 154.56 100.873 154.56 99.6C154.56 98.3269 155.015 97.106 155.825 96.2059C156.635 95.3057 157.734 94.8 158.88 94.8M158.88 104.4C160.026 104.4 161.125 103.894 161.935 102.994C162.745 102.094 163.2 100.873 163.2 99.6C163.2 98.3269 162.745 97.106 161.935 96.2059C161.125 95.3057 160.026 94.8 158.88 94.8" fill="#1E1E1E"/>
<path d="M81.12 104.4C79.9743 104.4 78.8754 103.894 78.0653 102.994C77.2551 102.094 76.8 100.873 76.8 99.6C76.8 98.3269 77.2551 97.106 78.0653 96.2059C78.8754 95.3057 79.9743 94.8 81.12 94.8C82.2657 94.8 83.3645 95.3057 84.1747 96.2059C84.9848 97.106 85.44 98.3269 85.44 99.6C85.44 100.873 84.9848 102.094 84.1747 102.994C83.3645 103.894 82.2657 104.4 81.12 104.4ZM158.88 104.4C157.734 104.4 156.635 103.894 155.825 102.994C155.015 102.094 154.56 100.873 154.56 99.6C154.56 98.3269 155.015 97.106 155.825 96.2059C156.635 95.3057 157.734 94.8 158.88 94.8C160.026 94.8 161.125 95.3057 161.935 96.2059C162.745 97.106 163.2 98.3269 163.2 99.6C163.2 100.873 162.745 102.094 161.935 102.994C161.125 103.894 160.026 104.4 158.88 104.4Z" stroke="#1E1E1E" stroke-linecap="round" stroke-linejoin="round"/>
<path fill-rule="evenodd" clip-rule="evenodd" d="M129.506 122.067C110.337 117.607 91.6801 127.539 86.8625 142.898C86.3666 144.479 84.683 145.358 83.1021 144.862C81.5212 144.367 80.6416 142.683 81.1375 141.102C87.0708 122.187 109.254 111.188 130.881 116.226L130.908 116.233C137.22 117.765 143.063 120.818 147.926 125.125C152.788 129.432 156.525 134.863 158.809 140.945C159.391 142.496 158.606 144.226 157.055 144.809C155.504 145.391 153.774 144.606 153.191 143.055C151.251 137.888 148.078 133.275 143.947 129.616C139.82 125.961 134.862 123.369 129.506 122.067Z" fill="#1E1E1E"/>
</svg>
