<svg version="1.1" id="Layer_1" xmlns="http://www.w3.org/2000/svg" xmlns:xlink="http://www.w3.org/1999/xlink" x="0px" y="0px"
	 width="100%" viewBox="0 0 1064 346" enable-background="new 0 0 1064 346" xml:space="preserve">

<path fill="#fff" opacity="1.000000" stroke="none" 
	d="
M229.994080,34.775688 
	C230.466446,34.842510 230.938797,34.909332 232.028473,35.122585 
	C233.731781,35.209885 234.817764,35.150757 235.903748,35.091629 
	C236.370544,35.016743 236.837341,34.941856 238.004379,34.871704 
	C239.171463,34.946854 239.638290,35.017269 240.417496,35.198608 
	C242.448242,35.239365 244.166641,35.169201 246.346436,35.065998 
	C249.583694,35.059814 252.359543,35.086670 255.462555,35.223812 
	C257.819153,35.256649 259.848602,35.179203 262.346985,35.064541 
	C266.581757,35.051128 270.347534,35.074936 274.340515,35.160965 
	C275.337463,35.184910 276.107269,35.146629 277.337830,35.071564 
	C280.569244,35.054260 283.339935,35.073742 286.452911,35.211212 
	C289.161987,35.248501 291.528717,35.167805 294.369476,35.054550 
	C300.937592,35.050343 307.031677,35.078690 313.415039,35.205860 
	C315.092438,35.241070 316.480652,35.177456 318.295258,35.082664 
	C319.860748,35.072575 320.999817,35.093658 322.519165,35.233017 
	C331.222260,35.270428 339.545013,35.189560 348.244690,35.086922 
	C349.124512,35.079254 349.627472,35.093357 350.509460,35.227070 
	C355.913818,35.269627 360.939148,35.192574 365.956116,35.025066 
	C365.947723,34.934608 365.934479,34.753403 365.934479,34.753403 
	C367.020264,34.773785 368.106018,34.794170 370.008575,34.838627 
	C371.922791,34.941296 373.020233,35.019890 374.459290,35.214203 
	C377.158051,35.255524 379.515198,35.181122 382.296661,35.074753 
	C383.854614,35.065388 384.988190,35.087986 386.295959,35.138000 
	C386.936951,35.149780 387.403809,35.134144 388.346313,35.083130 
	C398.877258,34.977829 408.932556,34.907906 418.987854,34.837982 
	C433.826355,39.739792 437.042664,44.155647 437.076569,59.921696 
	C437.115997,78.248650 437.100433,96.575722 437.090057,114.902740 
	C437.089233,116.374832 436.943604,117.846840 436.846344,119.674202 
	C435.926331,119.464996 435.159912,119.526550 434.798309,119.173515 
	C428.244385,112.775169 421.579132,106.476028 415.340881,99.780029 
	C413.859650,98.190155 413.287750,95.242645 413.255920,92.906555 
	C413.151611,85.250046 413.614105,77.587669 413.623169,69.927284 
	C413.633698,61.050888 409.493835,56.715496 401.110077,56.436451 
	C393.023499,56.167294 388.303162,60.621964 387.742249,69.259727 
	C387.559418,72.075592 387.701294,74.920929 387.829956,77.746635 
	C388.014862,81.807869 386.500793,83.039330 382.405701,81.928406 
	C366.827057,77.702232 350.992645,76.410263 334.884125,77.975967 
	C318.425781,79.575676 303.403656,84.846291 289.996155,94.571060 
	C284.193481,98.779861 283.907593,98.934021 281.286957,92.480835 
	C277.536560,83.245834 271.150818,78.431862 261.061493,78.501945 
	C244.739395,78.615349 228.404846,78.217064 212.097519,78.731201 
	C200.998001,79.081146 197.185669,83.641457 197.106308,94.950829 
	C196.980026,112.943817 197.023315,130.938126 197.030060,148.931870 
	C197.037689,169.257812 197.084167,189.583755 197.125763,210.729980 
	C197.157013,212.032654 197.176254,212.515015 197.195511,212.997391 
	C198.514450,222.350739 202.115082,226.087982 211.396896,226.490875 
	C221.210388,226.916824 231.050522,226.768967 240.879135,226.784882 
	C244.109589,226.790115 246.548599,227.566971 248.211197,230.763580 
	C265.204224,263.435364 292.594177,283.599274 326.671448,295.640076 
	C330.900543,297.134369 335.154510,298.558411 339.475128,300.920013 
	C337.847778,301.010040 336.220459,301.178986 334.593109,301.178802 
	C242.793228,301.168549 150.993347,301.154938 59.193478,301.098999 
	C52.554317,301.094940 45.800728,301.483673 39.302269,300.436615 
	C28.674898,298.724243 22.339785,291.134277 22.032259,280.312317 
	C21.658520,267.160492 21.786192,253.993011 21.781590,240.832291 
	C21.760323,180.021347 21.758966,119.210396 21.773621,58.399452 
	C21.776772,45.327564 26.967857,38.432007 40.018925,34.999294 
	C45.280529,34.991764 49.705788,35.050529 54.511662,35.229622 
	C65.957733,35.569511 77.022659,35.902191 88.088905,35.954460 
	C92.686501,35.976177 97.286926,35.399216 102.259354,35.075695 
	C103.130486,35.073402 103.628349,35.089916 104.415436,35.204742 
	C106.092201,35.239601 107.479736,35.176144 109.274704,35.083641 
	C110.498306,35.072075 111.314476,35.089558 112.511368,35.226814 
	C114.695915,35.561390 116.499344,35.959118 118.303627,35.963020 
	C139.028748,36.007835 159.754059,36.018044 180.479065,35.955650 
	C182.604401,35.949249 184.728165,35.413139 187.261230,35.093239 
	C188.488541,35.077976 189.307251,35.092304 190.502411,35.227406 
	C195.208221,35.269085 199.537598,35.189995 204.332275,35.073128 
	C207.910492,35.061146 211.023422,35.086945 214.512375,35.230789 
	C219.215744,35.267735 223.543060,35.186634 228.223846,35.046890 
	C229.049545,34.917397 229.521820,34.846542 229.994080,34.775688 
M95.713806,137.806610 
	C95.799057,144.191849 95.884300,150.577103 96.023483,157.656342 
	C96.003098,158.119568 95.982712,158.582779 95.703392,159.818771 
	C95.787544,166.528625 95.871696,173.238495 96.033272,180.889557 
	C96.067032,190.680328 96.037712,200.471848 96.151535,210.261688 
	C96.276108,220.977493 100.428619,225.748367 111.031357,226.085770 
	C126.448303,226.576370 141.885071,226.535995 157.313004,226.508682 
	C160.220367,226.503540 163.125992,225.501175 166.029572,225.012146 
	C166.029572,225.012146 165.976669,225.013504 166.714325,224.977371 
	C173.340988,223.742752 175.225098,218.495499 177.144821,212.242325 
	C177.428986,209.950424 177.957275,207.658875 177.960739,205.366547 
	C178.014511,169.819901 178.028122,134.273056 177.943985,98.726517 
	C177.937866,96.138336 177.108505,93.552109 176.349411,90.364227 
	C173.308029,81.849854 169.983521,79.130714 161.012146,78.916565 
	C145.731201,78.551804 130.443192,78.405190 115.157440,78.342598 
	C102.172440,78.289421 99.397377,80.526855 95.737007,93.751976 
	C95.820778,96.829521 95.904549,99.907074 96.060471,103.744110 
	C96.033081,104.505524 96.005684,105.266930 95.719070,106.804657 
	C95.808342,115.197479 95.897606,123.590302 96.074608,132.821960 
	C96.041382,134.225250 96.008156,135.628525 95.713806,137.806610 
M59.568787,58.140827 
	C48.675964,58.993965 44.598816,63.048248 44.341007,73.757111 
	C44.217014,78.907394 44.286484,84.101501 44.819450,89.218376 
	C45.463863,95.405205 48.716354,99.061745 54.883549,99.892601 
	C59.057388,100.454910 63.502274,100.089668 67.672279,99.313629 
	C72.563469,98.403381 75.560982,94.899490 75.940216,89.882790 
	C76.302383,85.091957 76.153046,80.256653 76.108261,75.442017 
	C75.992607,63.008442 72.708061,59.415691 59.568787,58.140827 
M46.220821,128.954697 
	C45.669708,137.139206 44.657280,145.327515 44.724243,153.506958 
	C44.771519,159.281250 48.768246,163.031815 54.405708,163.964355 
	C58.237019,164.598145 62.329632,164.554092 66.178200,163.972092 
	C72.060112,163.082581 75.351791,159.563400 75.941605,153.652771 
	C76.433479,148.723602 76.262619,143.717239 76.205261,138.747131 
	C76.132767,132.465225 74.814720,126.685806 68.102356,124.142838 
	C59.859303,121.019966 51.787022,122.694511 46.220821,128.954697 
M73.707169,189.977570 
	C67.639442,183.308212 55.465527,182.212677 48.904346,188.133224 
	C46.953121,189.893967 45.053314,192.727463 44.848576,195.211090 
	C44.306389,201.788132 44.168011,208.500198 44.871460,215.050858 
	C45.644924,222.253571 50.451302,225.749924 58.001659,225.973022 
	C67.949432,226.266998 74.955864,222.893478 75.492638,215.683929 
	C76.107864,207.420776 74.640503,199.002548 73.707169,189.977570 
M74.735710,274.859344 
	C75.089340,268.450531 75.982750,262.011475 75.626114,255.642426 
	C75.339897,250.531189 71.463394,247.158524 66.517738,246.336243 
	C62.523731,245.672211 58.209793,245.698395 54.232189,246.448822 
	C47.690617,247.682983 44.430096,252.260391 44.248802,260.040710 
	C44.061455,268.081299 42.647881,276.931854 52.406475,281.066162 
	C60.091881,284.322205 69.372086,281.819336 74.735710,274.859344 
z"/>
<path fill="#fff" opacity="1.000000" stroke="none" 
	d="
M396.186646,108.760513 
	C420.062439,123.988480 435.211060,144.891449 439.417084,172.745651 
	C442.668976,194.281357 439.189880,214.846786 427.724579,233.759354 
	C423.220001,241.189880 423.496155,241.199646 429.709290,246.971558 
	C448.977448,264.871246 468.069672,282.960846 487.398621,300.794098 
	C491.100067,304.209106 491.069244,307.027740 487.926575,310.476044 
	C485.010406,313.675781 482.260956,317.029633 479.298035,320.184082 
	C474.903229,324.862976 471.511353,324.970856 466.960541,320.509247 
	C447.932678,301.854340 428.850983,283.252014 410.040649,264.379608 
	C406.446960,260.774048 403.980835,260.240326 399.505829,263.043457 
	C365.578766,284.295197 320.527740,282.104919 289.440674,257.282196 
	C271.013947,242.568634 261.148895,222.620087 258.231659,199.388153 
	C255.217880,175.387222 259.565643,153.027374 274.042786,133.040298 
	C290.556702,110.241188 313.054504,98.282066 340.778168,96.052696 
	C360.343445,94.479370 378.926605,98.168236 396.186646,108.760513 
M279.606171,182.030197 
	C280.008545,188.650650 279.620178,195.433914 280.944366,201.864548 
	C288.363251,237.892838 318.155060,260.235718 354.866180,256.697418 
	C380.578979,254.219147 400.462921,241.345810 411.448029,217.780228 
	C424.663116,189.430695 419.621582,162.745407 399.495056,139.222885 
	C381.424896,118.103661 351.320618,109.755363 325.889984,119.213593 
	C297.503632,129.771118 282.576874,151.141586 279.606171,182.030197 
z"/>
<path fill="#fff" opacity="1.000000" stroke="none" 
	d="
M605.030090,114.032249 
	C599.487549,116.218491 597.896240,121.496025 595.595520,126.182693 
	C590.015137,137.550110 584.303955,148.859924 579.042786,160.374466 
	C576.655090,165.600143 572.592224,165.887741 567.912170,165.878448 
	C563.293396,165.869263 559.728577,165.000122 557.509705,160.055206 
	C551.509277,146.682465 545.018982,133.528854 538.669373,120.314056 
	C537.694031,118.284172 536.434937,116.390602 533.997070,114.516563 
	C533.602722,116.271446 532.887329,118.021965 532.863464,119.781868 
	C532.614746,138.108261 532.472412,156.436111 532.310791,174.763641 
	C532.240845,182.696869 531.991821,183.022141 524.213562,182.957443 
	C507.223114,182.816116 509.054596,185.028793 509.027374,167.742096 
	C508.980408,137.910416 508.996124,108.078560 509.026947,78.246834 
	C509.035400,70.048416 509.426880,70.692230 517.412476,69.621895 
	C530.265015,67.899231 537.707764,71.919830 542.592651,84.649925 
	C548.475037,99.979507 556.860291,114.354080 564.294861,129.074966 
	C565.114258,130.697357 566.805237,131.879562 568.092041,133.265915 
	C569.421875,131.927414 571.213135,130.818420 572.010681,129.215134 
	C580.618469,111.910637 589.261841,94.618202 597.453857,77.115730 
	C600.110413,71.439957 603.586792,69.028008 609.829102,69.739319 
	C614.103882,70.226433 618.485962,69.870964 622.815735,69.744568 
	C626.286804,69.643265 628.074341,70.914482 628.067993,74.644508 
	C628.009460,109.142502 628.008667,143.640640 628.031433,178.138687 
	C628.033691,181.549423 626.375061,182.968002 623.120544,182.939484 
	C619.121338,182.904434 615.115784,182.774033 611.123840,182.942047 
	C606.741943,183.126450 605.212585,180.971115 605.241089,176.883331 
	C605.328125,164.388641 605.341064,151.893082 605.308960,139.398041 
	C605.287964,131.235046 605.138794,123.072395 605.033081,114.443840 
	C605.019043,113.978096 605.030090,114.032249 605.030090,114.032249 
M602.431580,113.998169 
	C602.431580,113.998169 602.481873,113.982681 602.431580,113.998169 
z"/>
<path fill="#00ffff" opacity="1.000000" stroke="none" 
	d="
M660.022583,92.084961 
	C674.894165,70.818245 696.079224,65.960426 719.764160,68.437241 
	C747.935791,71.383240 767.995239,93.869072 769.206177,122.217628 
	C770.095398,143.032471 764.309631,161.074280 747.454590,173.884628 
	C727.795105,188.826401 705.689575,189.843277 683.490479,180.710571 
	C663.106934,172.324753 653.236145,155.523010 650.790527,134.070602 
	C649.092712,119.178078 652.027466,105.245552 660.022583,92.084961 
M686.461365,155.045593 
	C697.385864,164.816299 710.058105,166.169510 723.343140,161.732056 
	C735.974121,157.513062 742.794434,147.583221 744.218201,134.870193 
	C745.025269,127.663727 744.083740,119.843254 742.094849,112.818817 
	C735.644226,90.035545 704.485596,82.007187 687.196350,98.252968 
	C671.694763,112.819000 671.122559,138.815826 686.461365,155.045593 
z"/>
<path fill="#fff" opacity="1.000000" stroke="none" 
	d="
M988.938110,115.016174 
	C1004.075500,115.019508 1019.214661,115.157349 1034.349121,114.950195 
	C1039.359863,114.881607 1041.045166,116.807243 1041.052734,121.699883 
	C1041.076416,136.974152 1041.128296,134.628693 1028.230591,134.777237 
	C1016.753967,134.909409 1005.273071,134.981140 993.798401,134.800919 
	C988.931885,134.724472 986.633972,136.555893 986.873657,141.483276 
	C987.179565,147.769592 987.399475,154.060089 987.833496,160.713730 
	C988.010498,161.078674 987.998291,161.033691 987.998291,161.033691 
	C990.130371,161.662292 992.257935,162.816650 994.395325,162.835175 
	C1009.693115,162.967804 1024.992920,162.871826 1040.291992,162.842972 
	C1047.291382,162.829773 1047.955322,163.481308 1048.037842,170.511154 
	C1048.184326,182.977356 1048.184448,182.953278 1035.552979,182.942902 
	C1013.933777,182.925125 992.314575,182.959213 970.695496,182.915680 
	C968.392395,182.911041 966.090027,182.534912 963.433594,182.003632 
	C963.062866,181.470306 963.052979,181.264130 963.050171,181.057663 
	C963.029907,180.588348 963.009705,180.119049 963.082642,179.059830 
	C963.130676,177.661713 963.085571,176.853485 963.040405,176.045273 
	C963.018799,175.267059 962.997131,174.488846 963.126038,173.006073 
	C963.207642,170.560287 963.138611,168.819061 963.069641,167.077850 
	C963.041870,155.338165 963.014038,143.598480 963.116455,131.117645 
	C963.186035,129.274841 963.125427,128.173218 963.064819,127.071579 
	C963.038208,125.964943 963.011597,124.858315 963.052734,123.152863 
	C963.099792,122.057259 963.079102,121.560471 963.058472,121.063675 
	C963.032959,108.663216 963.007446,96.262764 963.089111,83.156311 
	C963.152954,81.657288 963.109497,80.864265 963.066101,80.071243 
	C963.024109,77.675598 962.982178,75.279953 963.397583,72.377670 
	C967.963623,71.583923 972.071655,71.286667 976.181213,71.012344 
	C981.097290,70.684204 986.014709,70.375679 990.931519,70.058655 
	C992.039673,70.034019 993.147827,70.009392 995.053711,70.150772 
	C997.993286,70.545242 1000.134583,70.965004 1002.276978,70.971344 
	C1016.924561,71.014702 1031.572388,70.971268 1046.219971,70.955811 
	C1046.433105,75.412354 1046.719727,79.866943 1046.838135,84.326004 
	C1046.949951,88.533936 1044.749146,90.089149 1040.594604,90.053253 
	C1025.641235,89.924034 1010.685730,89.981743 995.731323,90.051521 
	C993.264648,90.063026 990.799927,90.489334 987.749268,91.199371 
	C986.943481,98.256401 986.596252,104.838402 986.617188,111.419266 
	C986.620972,112.620689 988.126038,113.817337 988.938110,115.016174 
z"/>
<path fill="#fff" opacity="1.000000" stroke="none" 
	d="
M839.905029,213.156982 
	C839.905029,227.436646 839.905029,241.716309 839.905029,256.065887 
	C844.424072,257.260559 846.556702,254.914627 848.700623,252.239792 
	C858.279724,240.288467 867.808533,228.291534 877.680725,216.585388 
	C879.353210,214.602158 882.518311,213.211609 885.168091,212.859680 
	C890.421936,212.161880 895.796753,212.304779 901.122864,212.262177 
	C902.824707,212.248566 904.530701,212.746048 907.557983,213.214386 
	C902.056458,220.055862 897.421265,226.051071 892.539307,231.838028 
	C884.811462,240.998413 877.140686,250.225540 868.997559,259.008850 
	C865.154419,263.154175 865.629456,266.310974 868.791992,270.292114 
	C877.281067,280.978333 885.592468,291.805603 893.980042,302.572479 
	C898.583923,308.482239 903.199280,314.383087 907.970581,320.971741 
	C908.038574,322.197021 907.945435,322.738495 907.852295,323.280029 
	C900.030212,323.195526 892.206360,322.978973 884.386963,323.086517 
	C880.877197,323.134827 878.501099,321.932526 876.414246,319.094513 
	C866.852966,306.091797 857.159790,293.185303 847.410828,280.322479 
	C846.173157,278.689545 844.328430,277.516724 842.233154,275.923523 
	C841.453918,275.476868 841.206421,275.237427 840.774292,275.354858 
	C840.360657,277.177826 839.947449,278.641937 839.931641,280.110291 
	C839.801697,292.203796 839.656128,304.298431 839.704834,316.391968 
	C839.728943,322.364136 839.405579,322.926117 833.311157,322.982880 
	C829.497864,323.018402 825.683289,322.917603 821.771851,322.887939 
	C821.478882,322.912537 821.283081,322.922424 820.704773,322.964783 
	C819.554932,323.008179 818.787415,323.014343 817.857300,322.839050 
	C817.471558,322.421143 817.235779,322.197968 816.983887,321.640442 
	C817.012329,320.830688 817.044312,320.368469 817.203247,319.523743 
	C817.561096,316.341583 817.988281,313.542328 817.993103,310.742310 
	C818.043884,281.198029 818.040527,251.653610 818.012817,222.109268 
	C818.009277,218.345901 818.018250,214.689209 822.187256,212.854736 
	C824.867859,212.690231 827.548523,212.525696 831.104858,212.396820 
	C834.622131,212.673981 837.263550,212.915482 839.905029,213.156982 
z"/>
<path fill="#fff" opacity="1.000000" stroke="none" 
	d="
M683.903076,264.900024 
	C684.437683,276.172577 684.437683,276.183044 673.065308,276.194733 
	C663.904785,276.204132 654.744202,276.170624 645.583679,276.181549 
	C638.344177,276.190186 637.297058,277.239380 637.224060,284.643402 
	C637.184692,288.639771 637.229553,292.637543 637.280518,296.634094 
	C637.335022,300.900543 639.382935,302.978546 643.799072,302.952637 
	C656.623413,302.877441 669.448730,302.927765 682.273438,302.979675 
	C688.644287,303.005463 689.126404,303.471588 689.256714,309.754364 
	C689.553467,324.062469 692.358459,323.039459 676.360352,323.045654 
	C657.872253,323.052856 639.384094,323.069733 620.896057,323.038757 
	C614.352478,323.027802 613.955688,322.656433 613.951172,316.367004 
	C613.927979,284.054565 614.022278,251.741776 613.864014,219.430145 
	C613.840027,214.532547 615.401367,212.510818 620.401550,212.518631 
	C641.550781,212.551682 662.700317,212.383499 683.849609,212.253204 
	C687.416016,212.231247 688.959045,213.886795 688.942505,217.436493 
	C688.862976,234.467209 690.154419,231.962662 675.276367,232.205582 
	C665.119080,232.371445 654.956848,232.209564 644.797546,232.287430 
	C638.817322,232.333267 637.428040,233.387238 637.597961,239.172379 
	C637.776123,245.238495 638.770020,251.280655 640.037659,257.773010 
	C642.620300,258.477356 644.570801,258.953644 646.525391,258.970856 
	C656.264832,259.056702 666.009216,259.187531 675.743591,258.956055 
	C680.268127,258.848480 683.027588,260.381104 683.903076,264.900024 
z"/>
<path fill="#fff" opacity="1.000000" stroke="none" 
	d="
M873.396240,114.374748 
	C866.023193,135.328949 858.679138,155.877579 851.632874,176.527817 
	C850.042053,181.189880 847.656982,183.328339 842.604675,183.018967 
	C836.960083,182.673325 831.247742,182.608047 825.618591,183.072205 
	C820.116394,183.525894 817.556274,181.198135 815.835571,176.196518 
	C807.705688,152.564743 799.300659,129.027634 791.000610,105.454353 
	C787.514526,95.553314 784.032043,85.650986 780.582153,75.737320 
	C780.055298,74.223198 779.714661,72.644264 779.007874,70.078857 
	C788.308350,70.078857 796.877441,69.878304 805.415710,70.301247 
	C806.655640,70.362663 808.275940,73.250557 808.827698,75.097183 
	C815.313416,96.805733 821.615112,118.569191 828.000793,140.307755 
	C829.173767,144.301010 830.401794,148.285751 831.837769,152.188583 
	C832.184021,153.129623 833.613037,154.458664 834.274353,154.320236 
	C835.374451,154.089935 836.816223,152.995193 837.146057,151.956940 
	C841.836365,137.194031 846.392395,122.388107 850.921082,107.574295 
	C854.329651,96.424400 857.557922,85.217949 861.119202,74.117775 
	C861.633911,72.513390 863.509155,70.253555 864.849182,70.186600 
	C872.442688,69.807182 880.064880,70.003029 888.799866,70.003029 
	C883.511475,85.245483 878.522217,99.625702 873.396240,114.374748 
z"/>
<path fill="#fff" opacity="1.000000" stroke="none" 
	d="
M737.915039,255.690247 
	C738.434875,256.338745 738.954651,256.987274 739.858826,257.938507 
	C740.827881,258.166718 741.412476,258.092194 741.997131,258.017639 
	C743.064819,257.993927 744.132568,257.970215 745.723877,258.097198 
	C746.831665,258.164734 747.415833,258.081573 748.000000,257.998474 
	C751.029419,257.975861 754.058838,257.953247 757.914978,258.093506 
	C765.431458,258.867340 772.121277,259.478333 777.684265,259.986420 
	C776.810486,262.489929 775.556213,264.996765 775.118225,267.638947 
	C774.665833,270.367859 775.006836,273.228363 775.000793,276.031281 
	C763.333740,276.128937 751.666687,276.226593 739.252380,276.560303 
	C738.054443,279.194275 737.603821,281.592255 737.153198,283.990204 
	C737.141479,289.008331 737.129822,294.026428 737.272583,299.852783 
	C739.134460,301.424713 740.835083,302.831482 742.550537,302.849792 
	C755.695251,302.990173 768.842834,302.860382 781.989563,302.814575 
	C784.369568,302.849609 786.749634,302.884613 789.682739,303.186646 
	C790.463318,303.974457 790.690918,304.495270 790.918457,305.016113 
	C790.969727,306.081299 791.021057,307.146454 791.072998,309.071045 
	C791.056885,312.259979 790.909668,314.597504 791.051758,316.917267 
	C791.305298,321.056763 789.741516,323.045135 785.334595,323.018921 
	C762.203552,322.881348 739.071655,322.890594 715.768677,322.631836 
	C715.040894,321.930695 714.484619,321.446564 713.928223,320.962433 
	C713.908936,320.549316 713.889648,320.136200 714.042480,319.013855 
	C714.474121,316.003479 714.955322,313.702728 714.959595,311.401093 
	C715.013000,282.798279 715.026245,254.195251 714.950195,225.592545 
	C714.943237,222.976425 714.251282,220.362122 713.877441,217.746979 
	C713.813416,216.769470 713.749390,215.791977 714.212830,214.436905 
	C736.666382,214.039352 758.592590,213.988281 780.518616,214.018402 
	C787.051270,214.027374 787.893066,214.964005 787.981689,221.610352 
	C788.028198,225.097839 787.972168,228.586670 787.962463,232.074905 
	C773.907471,232.147156 759.851746,232.165222 745.798096,232.343582 
	C743.379517,232.374268 740.969604,233.086838 738.285156,233.723602 
	C738.014709,233.962784 738.040894,233.931931 738.040894,233.931931 
	C737.907715,240.689651 737.774475,247.447388 737.801147,254.760666 
	C737.961121,255.316223 737.915039,255.690247 737.915039,255.690247 
z"/>
<path fill="#fff" opacity="1.000000" stroke="none" 
	d="
M526.099060,219.027039 
	C538.443909,211.188675 551.654602,211.137268 565.016846,213.376755 
	C570.380371,214.275681 575.529724,216.440918 580.785217,218.000748 
	C583.921570,218.931641 584.920532,220.975296 584.282471,224.108765 
	C583.518921,227.858978 582.897278,231.638260 582.226868,235.407211 
	C581.679565,238.484421 580.064392,238.882629 577.181213,238.049210 
	C570.003967,235.974472 562.771301,234.024918 555.459717,232.515015 
	C552.640137,231.932755 549.458740,232.276794 546.599060,232.908707 
	C542.318542,233.854568 538.910522,236.206116 538.219604,241.042252 
	C537.518494,245.949402 539.660828,249.666321 543.848755,251.793335 
	C549.922180,254.877991 556.257263,257.445282 562.463318,260.271606 
	C566.700806,262.201477 571.037781,263.961945 575.108032,266.202057 
	C596.647949,278.056702 593.428467,307.763550 574.660828,317.912292 
	C566.941162,322.086823 558.719055,323.682678 550.142517,323.768341 
	C538.701233,323.882568 527.656372,321.694397 516.942871,317.612885 
	C512.554688,315.941101 510.354553,313.672241 511.924774,308.655518 
	C513.012329,305.181000 513.503235,301.503296 514.070190,297.886505 
	C514.705688,293.832458 516.406311,292.742249 520.119873,294.998596 
	C528.220764,299.920502 537.036438,303.059052 546.506836,303.366730 
	C550.678040,303.502228 555.236816,302.714203 559.031860,301.024933 
	C565.963623,297.939453 566.845581,289.183258 560.790100,284.622467 
	C557.132446,281.867645 552.798889,279.923248 548.591003,278.005341 
	C541.632629,274.833771 534.403442,272.242432 527.513367,268.937531 
	C509.154877,260.131653 509.433807,228.104156 526.099060,219.027039 
z"/>
<path fill="#fff" opacity="1.000000" stroke="none" 
	d="
M908.916260,165.995132 
	C908.922302,136.177612 908.919067,106.858841 908.935608,77.540092 
	C908.939819,70.075294 909.144104,69.890579 916.396423,69.852203 
	C919.561462,69.835457 922.742432,70.038734 925.888062,69.788460 
	C930.719604,69.404060 932.203247,71.487778 932.177429,76.198311 
	C932.015015,105.849586 932.082092,135.502121 932.074524,165.154251 
	C932.073425,169.485336 931.998718,173.818420 932.106262,178.146881 
	C932.190796,181.548996 930.632690,183.001694 927.299133,182.949448 
	C922.969299,182.881592 918.636047,182.875641 914.306946,182.969543 
	C910.481018,183.052521 908.853271,181.197952 908.914124,177.487854 
	C908.974243,173.824173 908.918945,170.158630 908.916260,165.995132 
z"/>
<path fill="#fff" opacity="1.000000" stroke="none" 
	d="
M775.448120,276.068634 
	C775.006836,273.228363 774.665833,270.367859 775.118225,267.638947 
	C775.556213,264.996765 776.810486,262.489929 777.684265,259.986420 
	C772.121277,259.478333 765.431458,258.867340 758.367920,258.125122 
	C764.920471,257.954346 771.848083,257.983154 778.772461,257.847839 
	C782.537415,257.774261 784.226318,259.431274 784.138672,263.180908 
	C784.053955,266.807007 784.143921,270.437164 784.113037,274.764709 
	C784.069031,275.463867 783.956360,275.934662 783.956360,275.934631 
	C781.269409,275.991760 778.582458,276.048889 775.448120,276.068634 
z"/>
<path fill="#fff" opacity="1.000000" stroke="none" 
	d="
M508.010925,123.000000 
	C508.010010,142.751724 508.010010,162.003433 508.010010,181.255157 
	C507.755127,181.253754 507.500214,181.252350 507.245331,181.250946 
	C507.245331,144.740845 507.245331,108.230736 507.245331,71.720627 
	C507.500854,71.719170 507.756348,71.717712 508.011871,71.716248 
	C508.011871,88.644165 508.011871,105.572083 508.010925,123.000000 
z"/>
<path fill="#fff" opacity="1.000000" stroke="none" 
	d="
M737.997803,233.970978 
	C738.425171,238.977905 738.869507,243.976624 739.313843,248.975357 
	C738.894531,248.995728 738.475220,249.016113 738.055908,249.036484 
	C738.055908,244.318115 738.055908,239.599731 738.048401,234.406647 
	C738.040894,233.931931 738.014709,233.962784 737.997803,233.970978 
z"/>
<path fill="#fff" opacity="1.000000" stroke="none" 
	d="
M741.664429,257.993164 
	C741.412476,258.092194 740.827881,258.166718 740.120544,258.116333 
	C740.442444,257.983826 740.887085,257.976227 741.664429,257.993164 
z"/>
<path fill="#fff" opacity="1.000000" stroke="none" 
	d="
M747.666870,257.978577 
	C747.415833,258.081573 746.831665,258.164734 746.123779,258.124817 
	C746.444580,257.987396 746.889160,257.973053 747.666870,257.978577 
z"/>
<path fill="#fff" opacity="1.000000" stroke="none" 
	d="
M738.068481,255.708801 
	C737.915039,255.690247 737.961121,255.316223 737.983398,255.128555 
	C738.077820,255.203049 738.149841,255.465210 738.068481,255.708801 
z"/>





</svg>